<svg aria-hidden="true" style="position: absolute; width: 0; height: 0; overflow: hidden;" version="1.1" xmlns="http://www.w3.org/2000/svg" xmlns:xlink="http://www.w3.org/1999/xlink">
<defs>
<symbol id="icon-Burgerburger" viewBox="0 0 56 32">
<path stroke-linejoin="miter" stroke-linecap="butt" stroke-miterlimit="4" stroke-width="5.3333" d="M0 2.667h56"></path>
<path stroke-linejoin="miter" stroke-linecap="butt" stroke-miterlimit="4" stroke-width="5.3333" d="M0 16h56"></path>
<path stroke-linejoin="miter" stroke-linecap="butt" stroke-miterlimit="4" stroke-width="5.3333" d="M0 29.333h56"></path>
</symbol>
<symbol id="icon-heart" viewBox="0 0 34 32">
<path d="M17.143 32l-2.486-2.302c-8.829-8.144-14.657-13.532-14.657-20.107 0-5.389 4.149-9.591 9.429-9.591 2.983 0 5.846 1.413 7.714 3.627 1.869-2.215 4.731-3.627 7.714-3.627 5.28 0 9.429 4.203 9.429 9.591 0 6.574-5.829 11.963-14.657 20.107l-2.486 2.302z"></path>
</symbol>
<symbol id="icon-loop" viewBox="0 0 32 32">
<path d="M14.234 0c-2.27 0-4.507 0.543-6.524 1.584s-3.757 2.548-5.073 4.398c-1.316 1.849-2.171 3.987-2.493 6.233s-0.102 4.538 0.642 6.683c0.744 2.145 1.989 4.080 3.633 5.645s3.638 2.715 5.817 3.352c2.178 0.638 4.478 0.745 6.706 0.314s4.321-1.39 6.104-2.795l6.116 6.116c0.316 0.305 0.739 0.474 1.178 0.47s0.859-0.18 1.17-0.491c0.31-0.31 0.487-0.73 0.491-1.17s-0.165-0.862-0.47-1.178l-6.116-6.116c1.655-2.099 2.685-4.621 2.973-7.278s-0.178-5.342-1.345-7.746c-1.166-2.405-2.986-4.432-5.252-5.851s-4.884-2.171-7.557-2.171zM3.348 14.234c0-2.887 1.147-5.656 3.188-7.697s4.81-3.188 7.697-3.188c2.887 0 5.656 1.147 7.697 3.188s3.188 4.81 3.188 7.697-1.147 5.656-3.188 7.697c-2.041 2.041-4.81 3.188-7.697 3.188s-5.656-1.147-7.697-3.188c-2.041-2.041-3.188-4.81-3.188-7.697z"></path>
</symbol>
</defs>
</svg>
