<svg width="11" height="14" viewBox="0 0 11 14" fill="none" xmlns="http://www.w3.org/2000/svg">
<path d="M0 13.4326V2.86768H2.75C2.75 2.14134 3.01927 1.51955 3.55781 1.00231C4.09635 0.485075 4.74375 0.226456 5.5 0.226456C6.25625 0.226456 6.90365 0.485075 7.44219 1.00231C7.98073 1.51955 8.25 2.14134 8.25 2.86768H11V13.4326H0ZM4.125 2.86768H6.875C6.875 2.50451 6.74048 2.19373 6.47144 1.93533C6.20194 1.67649 5.87813 1.54707 5.5 1.54707C5.12187 1.54707 4.79829 1.67649 4.52925 1.93533C4.25975 2.19373 4.125 2.50451 4.125 2.86768ZM1.375 12.112H9.625V4.18829H8.25H6.875H4.125H2.75H1.375V12.112Z" fill="#02A3FD"/>
</svg>
